<svg width="24" height="24" viewBox="0 0 24 24" fill="none" xmlns="http://www.w3.org/2000/svg">
<path fill-rule="evenodd" clip-rule="evenodd" d="M12 20.3333C16.6023 20.3333 20.3333 16.6023 20.3333 12C20.3333 7.39763 16.6023 3.66667 12 3.66667C7.39761 3.66667 3.66666 7.39763 3.66666 12C3.66666 16.6023 7.39761 20.3333 12 20.3333ZM12 18.6667C15.6819 18.6667 18.6667 15.6819 18.6667 12C18.6667 8.3181 15.6819 5.33334 12 5.33334C8.31809 5.33334 5.33332 8.3181 5.33332 12C5.33332 15.6819 8.31809 18.6667 12 18.6667ZM11.1667 7.83334H9.49999V13.6667H15.3333V12H11.1667V7.83334Z" fill="#2D2D2D"/>
<mask id="mask0_0_55" style="mask-type:alpha" maskUnits="userSpaceOnUse" x="3" y="3" width="18" height="18">
<path fill-rule="evenodd" clip-rule="evenodd" d="M12 20.3333C16.6023 20.3333 20.3333 16.6023 20.3333 12C20.3333 7.39763 16.6023 3.66667 12 3.66667C7.39761 3.66667 3.66666 7.39763 3.66666 12C3.66666 16.6023 7.39761 20.3333 12 20.3333ZM12 18.6667C15.6819 18.6667 18.6667 15.6819 18.6667 12C18.6667 8.3181 15.6819 5.33334 12 5.33334C8.31809 5.33334 5.33332 8.3181 5.33332 12C5.33332 15.6819 8.31809 18.6667 12 18.6667ZM11.1667 7.83334H9.49999V13.6667H15.3333V12H11.1667V7.83334Z" fill="white"/>
</mask>
<g mask="url(#mask0_0_55)">
</g>
</svg>
